<?xml version="1.0" standalone="no"?>
<!DOCTYPE svg PUBLIC "-//W3C//DTD SVG 20010904//EN"
 "http://www.w3.org/TR/2001/REC-SVG-20010904/DTD/svg10.dtd">
<svg version="1.0" xmlns="http://www.w3.org/2000/svg"
 width="512.000000pt" height="512.000000pt" viewBox="0 0 512.000000 512.000000"
 preserveAspectRatio="xMidYMid meet">

<g transform="translate(0.000000,512.000000) scale(0.100000,-0.100000)"
fill="#000000" stroke="none">
<path d="M0 2560 l0 -2560 2560 0 2560 0 0 2560 0 2560 -2560 0 -2560 0 0
-2560z m2671 1906 c23 -10 55 -12 99 -9 60 5 68 3 105 -24 22 -16 63 -37 90
-48 31 -11 73 -40 111 -77 49 -47 67 -58 94 -58 53 0 185 -93 216 -152 18 -35
18 -79 -1 -104 -24 -31 -19 -88 11 -123 14 -17 31 -31 37 -31 15 0 57 -102 57
-138 -1 -15 -11 -63 -24 -107 l-24 -79 56 -68 55 -68 -26 -58 c-15 -32 -32
-83 -38 -113 -7 -30 -14 -48 -17 -41 -3 10 -13 5 -33 -14 -29 -27 -30 -31 -24
-94 6 -56 3 -73 -18 -120 -13 -30 -33 -91 -43 -135 -13 -56 -31 -98 -61 -144
-24 -36 -52 -90 -64 -120 -26 -71 -42 -199 -33 -279 6 -58 10 -67 52 -109 60
-60 132 -113 212 -157 68 -37 460 -207 568 -246 l63 -23 112 111 c62 62 116
112 120 112 4 0 -19 -39 -51 -87 -337 -500 -827 -900 -1332 -1087 -114 -42
-318 -96 -365 -96 -45 0 -280 62 -380 100 -261 99 -518 252 -760 454 -137 114
-364 350 -482 501 -37 48 -143 205 -143 212 0 2 51 -43 112 -101 62 -58 118
-106 125 -106 7 0 32 9 55 20 24 11 142 61 263 111 121 50 250 107 287 126 87
45 246 177 255 212 4 14 7 73 7 131 -2 129 -24 203 -95 308 -35 52 -49 82 -49
107 0 19 -13 67 -28 107 -52 133 -57 155 -46 208 10 48 10 50 -21 80 -29 28
-33 30 -40 13 -5 -13 -11 2 -21 51 -7 38 -22 87 -33 109 -18 35 -18 44 -7 71
8 17 32 48 54 70 l40 38 -24 87 c-13 47 -24 99 -24 114 0 41 44 131 74 150 34
23 52 84 37 128 -6 17 -11 52 -11 76 0 37 6 50 41 88 23 25 45 45 50 45 5 0
30 14 56 30 26 17 60 30 76 30 21 0 46 16 94 59 42 38 99 75 161 106 89 44
101 47 152 41 37 -3 65 -1 85 9 41 18 193 19 236 1z m789 -1403 c0 -19 -3 -24
-10 -17 -6 6 -8 18 -4 27 9 24 14 21 14 -10z m-1798 -15 c-9 -9 -12 -7 -12 12
0 19 3 21 12 12 9 -9 9 -15 0 -24z"/>
<path d="M2550 3990 c-1 -3 -3 -18 -5 -35 -2 -16 -9 -68 -16 -114 -12 -88 -8
-164 13 -222 l12 -34 12 50 c16 66 15 247 -1 310 -7 28 -13 48 -15 45z"/>
<path d="M2604 3923 c10 -36 36 -170 42 -224 7 -65 -9 -184 -33 -234 -15 -32
-20 -35 -59 -35 l-43 0 -21 68 c-30 97 -35 174 -15 262 36 162 32 184 -25 140
-16 -12 -41 -20 -68 -20 -56 0 -95 -35 -86 -77 4 -21 0 -33 -14 -46 -19 -17
-20 -16 -42 40 -13 32 -24 59 -25 60 0 1 -18 -5 -38 -14 -35 -16 -37 -20 -37
-65 0 -37 -5 -50 -22 -62 -31 -22 -35 -21 -57 21 l-19 38 -31 -33 c-34 -38
-48 -88 -33 -129 8 -25 6 -29 -21 -43 -19 -9 -47 -42 -75 -87 l-44 -72 31 -47
c47 -72 40 -116 -12 -67 l-29 28 -24 -30 c-37 -45 -39 -67 -10 -123 14 -28 26
-63 26 -77 0 -25 -25 -58 -50 -67 -15 -5 34 -126 123 -304 30 -60 71 -158 91
-219 57 -171 58 -171 157 -213 72 -30 89 -42 107 -73 23 -40 98 -101 199 -162
47 -28 72 -37 107 -37 69 0 179 65 275 163 85 87 160 134 190 118 16 -9 23 -1
55 67 20 43 36 83 36 90 0 24 68 189 137 332 39 80 76 162 83 183 11 34 10 40
-14 68 -33 38 -33 62 0 128 26 52 26 53 9 92 -29 63 -41 67 -79 30 l-33 -32
-13 28 c-8 15 -16 31 -18 36 -2 4 3 5 10 2 9 -4 27 12 47 40 l33 46 -43 72
c-38 61 -63 86 -102 100 -5 1 -3 16 3 32 16 42 4 88 -31 127 l-31 33 -19 -38
c-22 -41 -26 -43 -55 -22 -15 10 -20 22 -17 39 9 44 -4 71 -42 89 -20 9 -37
17 -39 17 -2 0 -13 -27 -25 -61 -22 -59 -23 -60 -42 -43 -12 11 -19 30 -19 55
0 46 -27 69 -80 69 -23 0 -54 11 -84 30 -38 25 -46 27 -42 13z m-159 -605 c14
-6 25 -16 25 -22 0 -6 3 -21 6 -33 5 -19 2 -23 -17 -23 -48 0 -52 -12 -26 -73
l25 -55 -24 -36 c-23 -34 -69 -66 -94 -66 -7 0 -19 9 -28 21 -12 14 -35 23
-76 28 -39 5 -64 14 -73 26 -20 29 -16 35 18 23 24 -8 33 -8 39 3 12 19 5 26
-35 33 -20 4 -33 11 -30 17 10 14 58 11 124 -10 l61 -19 0 23 c0 28 -52 83
-87 91 -38 10 -200 -3 -267 -21 -32 -9 -60 -14 -62 -12 -11 11 110 78 172 96
81 23 305 29 349 9z m540 -2 c62 -18 198 -87 203 -103 2 -8 -17 -5 -59 7 -35
11 -65 18 -67 16 -2 -2 10 -31 27 -64 l31 -61 -49 -29 -48 -30 -9 42 c-7 33
-14 42 -34 44 -21 3 -22 2 -11 -12 11 -13 11 -17 -3 -22 -9 -3 -27 -3 -41 0
-22 6 -25 3 -25 -19 l0 -26 -44 31 c-53 36 -62 37 -77 8 -10 -18 -8 -24 12
-39 l24 -19 -43 0 c-24 0 -51 4 -61 10 -15 8 -21 3 -36 -30 -10 -22 -21 -40
-25 -40 -10 0 -20 26 -20 50 0 10 -4 20 -10 22 -5 2 15 41 45 86 30 46 55 85
55 87 0 1 -18 5 -41 8 -22 3 -43 7 -45 10 -7 7 25 75 38 80 33 12 266 6 313
-7z m-909 -228 c19 -36 12 -35 -41 6 -43 32 -44 34 -22 44 24 11 35 2 63 -50z
m412 -27 c10 -6 10 -10 -2 -21 -9 -7 -13 -16 -10 -21 3 -5 -1 -16 -10 -24 -8
-8 -17 -11 -20 -6 -4 5 0 12 6 14 10 4 10 8 2 14 -7 5 -8 16 -3 31 9 24 16 26
37 13z m-12 -178 c-2 -10 -8 -37 -11 -60 -7 -45 -14 -50 -46 -32 -15 7 -24 7
-35 -2 -11 -9 -14 -9 -14 2 0 15 89 109 103 109 5 0 6 -8 3 -17z m210 -25 c63
-59 80 -98 65 -148 -10 -35 -17 -40 -64 -56 -28 -9 -70 -31 -92 -49 l-40 -33
-40 34 c-22 18 -59 38 -82 45 -46 13 -83 52 -83 87 0 34 18 35 25 2 6 -29 9
-30 57 -30 46 0 54 -3 82 -36 l32 -37 36 32 c46 40 61 86 56 167 -2 35 -2 64
0 64 2 0 23 -19 48 -42z m-121 -348 c3 -5 1 -10 -4 -10 -6 0 -11 5 -11 10 0 6
2 10 4 10 3 0 8 -4 11 -10z m-85 -20 l-35 -19 110 0 c90 1 105 3 83 12 -16 6
-28 14 -28 19 0 17 53 7 115 -23 36 -17 69 -28 74 -25 9 6 81 -67 81 -84 0
-13 -6 -13 -44 1 -27 10 -40 7 -94 -15 -112 -47 -274 -45 -388 5 -44 20 -49
20 -79 6 -32 -15 -33 -15 -44 9 -10 24 -9 26 36 45 27 11 79 35 117 54 38 19
83 35 100 35 l31 -1 -35 -19z m-287 -160 c5 -41 4 -43 -9 -26 -8 11 -14 40
-13 65 0 54 13 32 22 -39z m738 -23 c-13 -13 -15 14 -3 64 l7 34 3 -44 c2 -24
-2 -49 -7 -54z"/>
<path d="M2245 3090 c-28 -7 -28 -8 12 -9 23 0 45 4 48 9 7 11 -16 11 -60 0z"/>
<path d="M2826 3237 c-50 -15 -105 -79 -87 -101 13 -16 35 -12 88 15 28 14 59
19 125 19 48 0 88 3 88 6 0 17 -24 46 -50 59 -34 18 -109 18 -164 2z"/>
<path d="M2675 2776 c-41 -41 -29 -66 31 -66 40 0 45 75 6 88 -6 2 -23 -8 -37
-22z"/>
<path d="M2396 2411 c-8 -13 65 -40 126 -47 72 -8 216 28 186 47 -18 12 -305
11 -312 0z"/>
<path d="M3064 2229 c-67 -19 -124 -110 -149 -239 -48 -248 -66 -309 -154
-502 -62 -137 -69 -178 -30 -178 10 0 33 20 51 44 18 25 43 49 54 54 19 9 24
6 40 -29 15 -33 22 -39 43 -37 17 2 25 8 22 18 -2 8 -5 51 -8 95 -5 70 -2 89
22 150 50 129 185 546 185 572 0 31 -17 63 -33 62 -7 0 -26 -5 -43 -10z"/>
<path d="M1984 2163 c4 -40 33 -143 71 -257 123 -365 112 -341 190 -425 39
-42 90 -104 113 -138 l42 -62 -64 6 c-37 3 -84 1 -115 -7 l-51 -12 20 -25 c26
-33 84 -74 182 -128 103 -57 114 -49 83 65 -8 30 -15 56 -15 56 0 1 9 4 20 7
30 8 25 29 -20 83 -42 51 -48 63 -117 219 -96 216 -120 286 -131 391 -24 209
-72 294 -169 294 l-46 0 7 -67z"/>
<path d="M2695 2016 c-54 -28 -69 -31 -150 -31 -77 0 -98 4 -148 27 l-58 27
21 -28 c15 -22 20 -45 20 -89 l0 -59 59 -56 c32 -31 70 -59 84 -62 66 -17 191
59 220 134 19 46 34 172 21 170 -5 -1 -36 -16 -69 -33z"/>
<path d="M3212 1938 c-24 -24 -14 -77 25 -124 34 -42 35 -47 25 -79 -5 -19 -7
-35 -3 -35 11 0 73 48 96 73 49 55 49 51 -8 96 -32 24 -65 41 -80 41 -20 0
-27 5 -27 20 0 23 -10 26 -28 8z"/>
<path d="M1845 1909 c-38 -9 -145 -75 -145 -89 0 -4 21 -24 46 -45 40 -33 48
-36 70 -26 32 14 95 114 91 143 -5 27 -11 28 -62 17z"/>
<path d="M2528 1623 c-53 -8 -29 -63 27 -63 37 0 55 16 55 47 0 24 -13 26 -82
16z"/>
<path d="M2012 1582 c-24 -33 -27 -54 -12 -83 14 -26 23 -24 43 10 20 35 22
61 4 85 -13 18 -15 17 -35 -12z"/>
<path d="M3060 1585 c-14 -37 -12 -98 3 -120 13 -17 16 -16 42 19 l28 37 -19
35 c-29 54 -42 61 -54 29z"/>
<path d="M2192 1424 c-21 -32 -31 -94 -14 -94 4 0 17 18 30 40 38 67 24 116
-16 54z"/>
<path d="M2724 1262 c-25 -20 -35 -37 -63 -111 l-20 -54 45 7 c68 9 147 51
198 106 25 27 46 54 46 60 0 6 -35 10 -92 10 -73 0 -98 -4 -114 -18z"/>
</g>
</svg>
